<svg width="40" height="40" viewBox="0 0 40 40" fill="none" xmlns="http://www.w3.org/2000/svg">
<path d="M16.2732 6.66699L15.3246 6.78281C15.3246 6.78281 11.0698 7.25574 7.96296 9.79411H7.92501L7.88707 9.83272C7.1898 10.4842 6.88623 11.2853 6.40716 12.458C5.92808 13.6306 5.41581 15.1266 4.96519 16.7819C4.06397 20.0972 3.3335 24.1123 3.3335 27.7847V28.0935L3.48528 28.4024C4.60944 30.4099 6.60638 31.6888 8.45626 32.5719C10.3062 33.455 11.9046 33.9231 13.0098 33.9617L13.7308 34.0003L14.1103 33.344L15.4384 30.9504C16.8472 31.2738 18.4694 31.4909 20.3335 31.4909C22.1976 31.4909 23.8198 31.2738 25.2286 30.9504L26.5567 33.344L26.9362 34.0003L27.6572 33.9617C28.7623 33.9231 30.3608 33.455 32.2107 32.5719C34.0606 31.6888 36.0575 30.4099 37.1817 28.4024L37.3335 28.0935V27.7847C37.3335 24.1123 36.603 20.0972 35.7018 16.7819C35.2512 15.1266 34.7389 13.6306 34.2598 12.458C33.7808 11.2853 33.4772 10.4842 32.7799 9.83272L32.742 9.79411H32.704C29.5972 7.25574 25.3424 6.78281 25.3424 6.78281L24.3938 6.66699L24.0522 7.55494C24.0522 7.55494 23.7012 8.45736 23.483 9.48526C22.1075 9.29705 20.9833 9.25362 20.3335 9.25362C19.6837 9.25362 18.5595 9.29705 17.1839 9.48526C16.9658 8.45736 16.6147 7.55494 16.6147 7.55494L16.2732 6.66699ZM14.6036 9.48526C14.6558 9.65899 14.7079 9.80859 14.7554 9.94854C13.1853 10.3443 11.511 10.9475 9.97412 11.9175L11.2643 14.0022C14.4139 12.014 18.939 11.7244 20.3335 11.7244C21.728 11.7244 26.2531 12.014 29.4027 14.0022L30.6929 11.9175C29.156 10.9475 27.4817 10.3443 25.9116 9.94854C25.9591 9.80859 26.0112 9.65899 26.0634 9.48526C27.1971 9.7169 29.36 10.2477 31.1482 11.6858C31.1387 11.6907 31.6036 12.4049 32.021 13.4231C32.4479 14.4703 32.9222 15.865 33.3491 17.4382C34.1697 20.4543 34.8148 24.1267 34.867 27.36C34.1033 28.5472 32.6851 29.6185 31.1862 30.3327C29.877 30.9552 28.843 31.1821 28.2264 31.2979L27.6192 30.2555C27.9797 30.1204 28.3354 29.9708 28.6438 29.8308C30.5126 28.996 31.5277 28.0935 31.5277 28.0935L29.9339 26.2404C29.9339 26.2404 29.2509 26.8774 27.6572 27.5917C26.0634 28.3059 23.6301 29.0201 20.3335 29.0201C17.0369 29.0201 14.6036 28.3059 13.0098 27.5917C11.4161 26.8774 10.733 26.2404 10.733 26.2404L9.1393 28.0935C9.1393 28.0935 10.1544 28.996 12.0232 29.8308C12.3315 29.9708 12.6873 30.1204 13.0478 30.2555L12.4406 31.2979C11.824 31.1821 10.79 30.9552 9.48082 30.3327C7.98193 29.6185 6.56369 28.5472 5.80001 27.36C5.85219 24.1267 6.49728 20.4543 7.31787 17.4382C7.74477 15.865 8.2191 14.4703 8.646 13.4231C9.06341 12.4049 9.52825 11.6907 9.51876 11.6858C11.307 10.2477 13.4699 9.7169 14.6036 9.48526ZM16.0835 17.9015C15.1443 17.9015 14.3142 18.4468 13.8067 19.1369C13.2992 19.827 13.0478 20.6763 13.0478 21.6077C13.0478 22.5391 13.2992 23.3884 13.8067 24.0785C14.3142 24.7686 15.1443 25.3139 16.0835 25.3139C17.0227 25.3139 17.8527 24.7686 18.3603 24.0785C18.8678 23.3884 19.1192 22.5391 19.1192 21.6077C19.1192 20.6763 18.8678 19.827 18.3603 19.1369C17.8527 18.4468 17.0227 17.9015 16.0835 17.9015ZM24.5835 17.9015C23.6443 17.9015 22.8142 18.4468 22.3067 19.1369C21.7992 19.827 21.5478 20.6763 21.5478 21.6077C21.5478 22.5391 21.7992 23.3884 22.3067 24.0785C22.8142 24.7686 23.6443 25.3139 24.5835 25.3139C25.5227 25.3139 26.3527 24.7686 26.8603 24.0785C27.3678 23.3884 27.6192 22.5391 27.6192 21.6077C27.6192 20.6763 27.3678 19.827 26.8603 19.1369C26.3527 18.4468 25.5227 17.9015 24.5835 17.9015ZM16.0835 20.3723C16.1499 20.3723 16.2353 20.3964 16.3871 20.6039C16.5389 20.8114 16.6906 21.1733 16.6906 21.6077C16.6906 22.042 16.5389 22.4039 16.3871 22.6114C16.2353 22.8189 16.1499 22.8431 16.0835 22.8431C16.0171 22.8431 15.9317 22.8189 15.7799 22.6114C15.6281 22.4039 15.4764 22.042 15.4764 21.6077C15.4764 21.1733 15.6281 20.8114 15.7799 20.6039C15.9317 20.3964 16.0171 20.3723 16.0835 20.3723ZM24.5835 20.3723C24.6499 20.3723 24.7353 20.3964 24.8871 20.6039C25.0389 20.8114 25.1906 21.1733 25.1906 21.6077C25.1906 22.042 25.0389 22.4039 24.8871 22.6114C24.7353 22.8189 24.6499 22.8431 24.5835 22.8431C24.5171 22.8431 24.4317 22.8189 24.2799 22.6114C24.1281 22.4039 23.9764 22.042 23.9764 21.6077C23.9764 21.1733 24.1281 20.8114 24.2799 20.6039C24.4317 20.3964 24.5171 20.3723 24.5835 20.3723Z" fill="black"/>
</svg>
