<svg width="458" height="483" viewBox="0 0 458 483" fill="none" xmlns="http://www.w3.org/2000/svg">
<path d="M309.794 344.697C291.515 363.352 272.707 381.478 254.5 400.042C235.307 419.616 215.36 443.631 194.93 461.512C166.126 486.728 130.546 452.53 153.657 424.166C163.643 411.918 190.358 392.817 191.586 377.056C192.814 361.186 172.832 352.086 160.057 358.774C117.368 396.229 81.285 441.847 38.5057 479.266C12.4095 491.105 -12.6825 464.87 7.12039 440.127C19.142 425.122 38.1381 408.896 51.9437 394.628C112.625 331.884 174.177 270.205 236.158 208.526C261.062 183.729 232.483 150.432 204.038 166.821L57.7797 314.103C33.0103 338.309 -5.60942 306.941 17.8421 278.113C108.932 187.369 197.664 94.1859 289.202 3.93318C314.868 -10.9269 343.609 19.3484 324.433 44.2457C309.328 63.8468 283.832 81.5825 268.413 101.129C248.772 126.045 281 157.503 304.756 138.93L414.179 27.966C438.957 8.83801 469.876 37.7575 451.731 63.3555L226.719 290.853C211.255 309.671 239 330.956 256.625 318.48L394.851 179.425C419.441 161.825 451.346 188.497 435.111 215.742C393.183 258.557 351.731 301.9 309.803 344.706L309.794 344.697Z" fill="#EAEAEA"/>
</svg>
