<svg width="458" height="744" viewBox="0 0 458 744" fill="none" xmlns="http://www.w3.org/2000/svg">
<path d="M310.294 344.697C292.015 363.352 273.207 381.478 255 400.042C235.807 419.616 215.86 443.631 195.43 461.512C166.626 486.728 131.046 452.53 154.157 424.166C164.143 411.918 190.858 392.817 192.086 377.056C193.314 361.186 173.332 352.086 160.557 358.774C117.868 396.229 81.785 441.847 39.0057 479.266C12.9095 491.105 -12.1825 464.87 7.62039 440.127C19.642 425.122 38.6381 408.896 52.4437 394.628C113.125 331.884 174.677 270.205 236.658 208.526C261.562 183.729 232.983 150.432 204.538 166.821L58.2797 314.103C33.5103 338.309 -5.10942 306.941 18.3421 278.113C109.432 187.369 198.164 94.1859 289.702 3.93318C315.368 -10.9269 344.109 19.3484 324.933 44.2457C309.828 63.8468 284.332 81.5825 268.913 101.129C249.272 126.045 281.5 157.503 305.256 138.93L414.679 27.966C439.457 8.83801 470.376 37.7575 452.231 63.3555L227.219 290.853C211.755 309.671 239.5 330.956 257.125 318.48L395.351 179.425C419.941 161.825 451.846 188.497 435.611 215.742C393.683 258.557 352.231 301.9 310.303 344.706L310.294 344.697Z" fill="#EAEAEA"/>
<path d="M218.434 569.748C161.964 626.388 106.504 684.348 48.4041 739.218C19.7941 756.068 -14.0559 724.018 6.10413 695.918L367.064 332.878C397.174 310.778 433.934 346.378 411.054 376.868C346.814 441.118 282.574 505.408 218.424 569.738L218.434 569.748Z" fill="#EAEAEA"/>
<circle cx="175" cy="47" r="20" fill="#EAEAEA"/>
</svg>
