<svg width="40" height="40" viewBox="0 0 40 40" fill="none" xmlns="http://www.w3.org/2000/svg">
<path fill-rule="evenodd" clip-rule="evenodd" d="M20.0002 3.33301C10.796 3.33301 3.3335 10.7955 3.3335 19.9997C3.3335 29.2038 10.796 36.6663 20.0002 36.6663C29.2043 36.6663 36.6668 29.2038 36.6668 19.9997C36.6668 10.7955 29.2043 3.33301 20.0002 3.33301ZM20.0002 6.11079C27.6585 6.11079 33.8891 12.3413 33.8891 19.9997C33.8891 27.658 27.6585 33.8886 20.0002 33.8886C12.3418 33.8886 6.11127 27.658 6.11127 19.9997C6.11127 12.3413 12.3418 6.11079 20.0002 6.11079ZM16.6307 26.5844H11.6668V26.3038L13.4182 24.1802C13.6043 23.9872 13.6891 23.715 13.6432 23.4497V16.083C13.6641 15.8788 13.5863 15.6761 13.4335 15.5386L11.8766 13.6636V13.3844H16.7085L20.4432 21.5747L23.7266 13.3844H28.3335V13.6636L27.0029 14.94C26.8877 15.0275 26.8307 15.1705 26.8557 15.3136V24.6858C26.8307 24.8288 26.8877 24.9719 27.0029 25.0594L28.3029 26.3358V26.615H21.7668V26.3358L23.1127 25.0288C23.2446 24.8969 23.2446 24.858 23.2446 24.6552V17.0788L19.5016 26.5844H18.996L14.6391 17.0788V23.4497C14.6029 23.7177 14.6918 23.9872 14.8807 24.1802L16.6307 26.3038V26.5844Z" fill="black"/>
</svg>
