<svg width="25" height="24" viewBox="0 0 25 24" fill="none" xmlns="http://www.w3.org/2000/svg">
<path d="M14.9797 18C14.2797 18 13.6881 17.7583 13.2047 17.275C12.7214 16.7917 12.4797 16.2 12.4797 15.5C12.4797 14.8 12.7214 14.2083 13.2047 13.725C13.6881 13.2417 14.2797 13 14.9797 13C15.6797 13 16.2714 13.2417 16.7547 13.725C17.2381 14.2083 17.4797 14.8 17.4797 15.5C17.4797 16.2 17.2381 16.7917 16.7547 17.275C16.2714 17.7583 15.6797 18 14.9797 18ZM5.47974 22C4.92974 22 4.4589 21.8042 4.06724 21.4125C3.67557 21.0208 3.47974 20.55 3.47974 20V6C3.47974 5.45 3.67557 4.97917 4.06724 4.5875C4.4589 4.19583 4.92974 4 5.47974 4H6.47974V2H8.47974V4H16.4797V2H18.4797V4H19.4797C20.0297 4 20.5006 4.19583 20.8922 4.5875C21.2839 4.97917 21.4797 5.45 21.4797 6V20C21.4797 20.55 21.2839 21.0208 20.8922 21.4125C20.5006 21.8042 20.0297 22 19.4797 22H5.47974ZM5.47974 20H19.4797V10H5.47974V20ZM5.47974 8H19.4797V6H5.47974V8Z" fill="white"/>
</svg>
