<svg width="32" height="32" viewBox="0 0 32 32" fill="none" xmlns="http://www.w3.org/2000/svg">
<mask id="mask0_765_717" style="mask-type:alpha" maskUnits="userSpaceOnUse" x="2" y="2" width="28" height="28">
<rect x="2.6665" y="2.66699" width="26.6667" height="26.6667" fill="#D9D9D9"/>
</mask>
<g mask="url(#mask0_765_717)">
<path d="M14.8887 21.5554H10.4442C8.90719 21.5554 7.59701 21.0138 6.51367 19.9304C5.43034 18.8471 4.88867 17.5369 4.88867 15.9999C4.88867 14.4629 5.43034 13.1527 6.51367 12.0693C7.59701 10.986 8.90719 10.4443 10.4442 10.4443H14.8887V12.6666H10.4442C9.5183 12.6666 8.73126 12.9906 8.08312 13.6388C7.43497 14.2869 7.11089 15.074 7.11089 15.9999C7.11089 16.9258 7.43497 17.7129 8.08312 18.361C8.73126 19.0092 9.5183 19.3332 10.4442 19.3332H14.8887V21.5554ZM11.5553 17.111V14.8888H20.4442V17.111H11.5553ZM17.1109 21.5554V19.3332H21.5553C22.4813 19.3332 23.2683 19.0092 23.9165 18.361C24.5646 17.7129 24.8887 16.9258 24.8887 15.9999C24.8887 15.074 24.5646 14.2869 23.9165 13.6388C23.2683 12.9906 22.4813 12.6666 21.5553 12.6666H17.1109V10.4443H21.5553C23.0924 10.4443 24.4026 10.986 25.4859 12.0693C26.5692 13.1527 27.1109 14.4629 27.1109 15.9999C27.1109 17.5369 26.5692 18.8471 25.4859 19.9304C24.4026 21.0138 23.0924 21.5554 21.5553 21.5554H17.1109Z" fill="black"/>
</g>
</svg>
